<svg xmlns="http://www.w3.org/2000/svg" xml:space="preserve"
     viewBox="0 0 6783.1 1230.9" fill="currentColor">
  <path d="M2092.5 254.7h-163l-251 699h147l46-133h278l46 133h148l-251-699zm-183 454 101-292 101 292h-202zM2592.7 416.7c29-16.7 62.2-25 99.5-25v147h-37c-44 0-77.2 10.3-99.5 31s-33.5 56.7-33.5 108v276h-140v-554h140v86c18-29.4 41.5-52.4 70.5-69zM2940.4 416.7c29-16.7 62.2-25 99.5-25v147h-37c-44 0-77.2 10.3-99.5 31s-33.5 56.7-33.5 108v276h-140v-554h140v86c18-29.4 41.5-52.4 70.5-69zM3486.4 399.7v79c-18.7-25.3-43.5-46.3-74.5-63s-67.2-25-108.5-25c-47.3 0-90.2 11.7-128.5 35s-68.7 56.7-91 100-33.5 93-33.5 149c0 56.7 11.2 106.8 33.5 150.5s52.7 77.5 91 101.5 80.8 36 127.5 36c41.3 0 77.8-8.5 109.5-25.5s56.5-38.5 74.5-64.5v81h141v-554h-141zm-20 364.5c-13.3 24.3-31.3 43-54 56s-47 19.5-73 19.5c-25.3 0-49.2-6.7-71.5-20s-40.3-32.5-54-57.5-20.5-54.2-20.5-87.5 6.8-62.2 20.5-86.5 31.5-42.8 53.5-55.5 46-19 72-19 50.3 6.5 73 19.5 40.7 31.7 54 56 20 53.5 20 87.5-6.7 63.2-20 87.5zM4249.7 399.7l-343 816h-149l120-276-222-540h157l143 387 145-387h149zM4760.3 360.7c-19-32.7-47.5-58.3-85.5-77s-84-28-138-28h-257v698h140v-268h117c57.3 0 104.8-10 142.5-30s65.3-46.3 83-79 26.5-67.7 26.5-105c0-41.3-9.5-78.3-28.5-111zm-143.5 185.5c-18.7 17.6-47.3 26.5-86 26.5h-111v-203h111c76 0 114 34 114 102 0 32-9.3 56.8-28 74.5zM5039.7 416.7c29-16.7 62.2-25 99.5-25v147h-37c-44 0-77.2 10.3-99.5 31s-33.5 56.7-33.5 108v276h-140v-554h140v86c18-29.4 41.5-52.4 70.5-69zM5700.2 664.7c0-54-11.5-101.8-34.5-143.5s-55.3-73.8-97-96.5-88.8-34-141.5-34c-54.7 0-103 11.7-145 35s-74.7 56.7-98 100-35 93.7-35 151c0 56.7 11.8 106.7 35.5 150s56.7 76.8 99 100.5 90.2 35.5 143.5 35.5c66 0 121.7-17.2 167-51.5s76-78.2 92-131.5h-151c-22 44.7-59 67-111 67-36 0-66.3-11.3-91-34s-38.7-54-42-94h405c2.6-16 4-34 4-54zm-408-40c5.3-37.3 19.8-66.5 43.5-87.5s52.8-31.5 87.5-31.5c36.7 0 67.7 10.8 93 32.5s38.3 50.5 39 86.5h-263zM5845.7 938.2c-36-16.3-64.5-38.5-85.5-66.5s-32.5-59-34.5-93h141c2.7 21.3 13.2 39 31.5 53s41.2 21 68.5 21c26.7 0 47.5-5.3 62.5-16s22.5-24.3 22.5-41c0-18-9.2-31.5-27.5-40.5s-47.5-18.8-87.5-29.5c-41.3-10-75.2-20.3-101.5-31s-49-27-68-49-28.5-51.7-28.5-89c0-30.7 8.8-58.7 26.5-84s43-45.3 76-60 71.8-22 116.5-22c66 0 118.7 16.5 158 49.5s61 77.5 65 133.5h-134c-2-22-11.2-39.5-27.5-52.5s-38.2-19.5-65.5-19.5c-25.3 0-44.8 4.7-58.5 14s-20.5 22.3-20.5 39c0 18.7 9.3 32.8 28 42.5s47.7 19.5 87 29.5c40 10 73 20.3 99 31s48.5 27.2 67.5 49.5 28.8 51.8 29.5 88.5c0 32-8.8 60.7-26.5 86s-43 45.2-76 59.5-71.5 21.5-115.5 21.5c-45.4 0-86-8.2-122-24.5zM6344.7 938.2c-36-16.3-64.5-38.5-85.5-66.5s-32.5-59-34.5-93h141c2.7 21.3 13.2 39 31.5 53s41.2 21 68.5 21c26.7 0 47.5-5.3 62.5-16s22.5-24.3 22.5-41c0-18-9.2-31.5-27.5-40.5s-47.5-18.8-87.5-29.5c-41.3-10-75.2-20.3-101.5-31s-49-27-68-49-28.5-51.7-28.5-89c0-30.7 8.8-58.7 26.5-84s43-45.3 76-60 71.8-22 116.5-22c66 0 118.7 16.5 158 49.5s61 77.5 65 133.5h-134c-2-22-11.2-39.5-27.5-52.5s-38.2-19.5-65.5-19.5c-25.3 0-44.8 4.7-58.5 14s-20.5 22.3-20.5 39c0 18.7 9.3 32.8 28 42.5s47.7 19.5 87 29.5c40 10 73 20.3 99 31s48.5 27.2 67.5 49.5 28.8 51.8 29.5 88.5c0 32-8.8 60.7-26.5 86s-43 45.2-76 59.5-71.5 21.5-115.5 21.5c-45.4 0-86-8.2-122-24.5zM816.1 121.5l2.8 4.8-2.8-4.8zM778.6 76.5l.6.5-.6-.5zM779.2 77l2.2 1.9-2.2-1.9zm-25.4-17.8a170.5 170.5 0 0 0-236.6 68.9l3.7-6.5a170.5 170.5 0 0 1 232.9-62.4zM468.9 321.9a227.1 227.1 0 0 1-25.5-65.9L47.3 942a170.4 170.4 0 1 0 295.2 170.4l291.4-504.7-17.3-29.9-147.7-255.9z"/>
    <path d="M1067.6 557.1 818.9 126.3l-2.8-4.8c-9.2-16-21-30.4-34.8-42.6l-2.2-1.9-.6-.5A170.4 170.4 0 0 0 521 121.6l-3.7 6.5a170.2 170.2 0 0 0 3.6 163.8l147.7 255.9 103.8 179.8a170.4 170.4 0 1 0 295.2-170.5z"/>
    <circle cx="1139.8" cy="1022.9" r="169.1"/>
</svg>