<svg xmlns="http://www.w3.org/2000/svg" xml:space="preserve"
     viewBox="0 0 356.9 92" fill="currentColor">
  <path d="m77.4 20.3-32-18.5a8.1 8.1 0 0 0-8 0L6 19.9l-.6.3a8 8 0 0 0-4 6.9v37c0 2.9 1.5 5.5 4 6.9l31.4 18.1.6.3a8.1 8.1 0 0 0 8 0l.6-.3L77.4 71a8 8 0 0 0 4-6.9V27.2c0-2.9-1.5-5.5-4-6.9zm-5.2 9.8v33.4l-1.9 1.1-8 4.6-14.1 8.2-2.2 1.2V43.9c0-.5-.3-1-.7-1.3L15.2 25.2l16.3-9.4 8-4.6 1.9-1.1 1.9 1.1L56.8 19l13.5 7.8 1.9 1.1v2.2zM145.5 50.3a12.9 12.9 0 0 0-9.7-6v-.6c1.6-.4 3.2-1.1 4.6-2 3-2 4.7-5.5 4.5-9.1 0-2.6-.7-4.8-1.9-6.9a13 13 0 0 0-5.6-4.8c-3-1.3-6.2-1.9-9.4-1.8h-19.9v52h21.1a24 24 0 0 0 9.9-1.9c4.8-2.1 7.9-7 7.8-12.3.3-2.4-.3-4.8-1.4-6.6zm-27.8-23.2h9.6c2.8 0 4.8.7 6.2 1.9a6.2 6.2 0 0 1 2.1 5c0 1.5-.4 2.9-1.2 3.9a7.7 7.7 0 0 1-3.2 2.6c-1.4.6-2.9.9-4.4.9h-9.2V27.1zm17.6 34.4c-1.5 1.3-4 1.9-7.4 1.9h-10.1V48.2h10.5c1.9 0 3.6.4 5 1.1s2.5 1.7 3.3 3a7.3 7.3 0 0 1-1.3 9.2zM151.5 19.3h9.2v52h-9.2zM199.9 41.4a16.3 16.3 0 0 0-6.5-7c-2.8-1.7-6.1-2.5-9.9-2.5s-7.1.8-9.9 2.5c-2.8 1.7-5 4.1-6.4 7a24 24 0 0 0-2.3 10.7c0 4 .8 7.5 2.3 10.6a17 17 0 0 0 16.3 9.6c3.8 0 7.1-.8 9.9-2.5 2.8-1.7 4.9-4 6.5-7 1.6-3.3 2.4-6.9 2.3-10.6a24 24 0 0 0-2.3-10.8zm-8.2 17a8.9 8.9 0 0 1-13.7 4.5 12 12 0 0 1-3.2-4.5 20.6 20.6 0 0 1 0-13 8.9 8.9 0 0 1 13.7-4.5c1.3 1.2 2.4 2.7 3.2 4.5a20.2 20.2 0 0 1 0 13zM218.1 40.7c1.4-1 3.2-1.5 4.9-1.5 2.6-.1 5 1.1 6.4 3.3.7 1 1.2 2.2 1.3 3.4h8.7a13.9 13.9 0 0 0-8.4-12.3 18.8 18.8 0 0 0-8.5-1.8 17.3 17.3 0 0 0-16.3 9.6A24 24 0 0 0 204 52c0 3.9.7 7.4 2.2 10.5 1.5 3.1 3.7 5.4 6.4 7s6.1 2.6 10 2.6c3.2 0 6.1-.7 8.5-1.8a14.1 14.1 0 0 0 8.2-12.3h-8.7a8.6 8.6 0 0 1-2.7 4.9 7.7 7.7 0 0 1-5.2 1.8c-1.9 0-3.6-.6-5-1.5a10.4 10.4 0 0 1-3.3-4.5c-.8-2-1.2-4.2-1.2-6.9 0-2.6.4-4.9 1.2-6.8a16 16 0 0 1 3.7-4.3zM278 32.4h-10.8l-14 15.6h-.7V19.3h-9.1v52h9.1v-13l3.4-3.6 12 16.6h11l-16-22.1zM285.3 16.8c-1.4 0-2.7.5-3.7 1.4a4.6 4.6 0 0 0-.5 6.5l.5.5c1.1.9 2.3 1.4 3.7 1.4 1.4 0 2.7-.5 3.7-1.4a4.6 4.6 0 0 0 .5-6.5l-.5-.5c-1-.9-2.3-1.4-3.7-1.4zM280.7 32.4h9.2v39.1h-9.2zM308.2 25.7c.7-.8 1.9-1.2 3.7-1.2l1.9.2 1.4.4 1.9-7.1-2.8-.7a18.5 18.5 0 0 0-10.4.8c-1.8.9-3.4 2.2-4.4 3.9-1.1 2-1.7 4.2-1.6 6.5v3.7h-5.8v7.1h5.8v31.9h9.1V39.4h8.2v-7.1H307v-3.1c.2-1.4.6-2.6 1.2-3.5zM344.8 32.4l-9 29.5h-.5l-8.9-29.5h-9.7l14.1 39.9-.8 2c-.8 2.1-1.9 3.4-3.2 3.8-1.3.5-2.9.4-4.7-.1l-.5-.2-2.1 7.1c4 1.3 8.3 1.2 12.3-.2 1.8-.8 3.2-1.9 4.4-3.4 1.2-1.5 2.1-3.2 2.9-5.4l15.7-43.7-10 .2z"/>
</svg>