<?xml version="1.0" encoding="UTF-8"?> <svg xmlns="http://www.w3.org/2000/svg" xml:space="preserve" viewBox="0 0 48 48"> <path fill="#e0382b" d="M7.2 12.5 13.9 24l.3.3c0-3.1 1.1-5.8 3.5-7.8 3.1-2.6 6.6-3 10.4-1.5l.4.1H45.9l-.3-.8A24.1 24.1 0 0 0 24 .5C16.4.5 9.7 4.1 5.4 9.6l1.8 2.9z"></path> <path fill="#289a48" d="m20.7 47.3.6-.5.7-1.2 6.6-11.9.8-1.5a10 10 0 0 1-6.3 1.6 9.9 9.9 0 0 1-8.7-7.6l-.3-1.8-.3-.3-6.7-11.5-1.8-2.9-.7.9-.3.4a2 2 0 0 1-.4.6l-.6 1-.5.9-.2.4A26 26 0 0 0 .5 24v1.3l.1.9.2 1.6.6 2.7.1.3.2.5a23.6 23.6 0 0 0 19 16z"></path> <path fill="#fbc013" d="m47.3 21.2-.4-2.5-.1-.3-1.1-3.3H28.3c1.4.8 2.6 1.7 3.5 3a9.7 9.7 0 0 1-2.3 13.8l-.2.2-.8 1.5-6.6 11.9c-.2.4-.4.9-.7 1.2l-.6.5 3.3.2c6.9 0 13.1-3 17.4-7.7l.3-.3 1-1.2.9-1.2a23.6 23.6 0 0 0 3.8-15.8z"></path> <path fill="#f9f9f9" d="M17.7 16.5a9.7 9.7 0 0 0-3.5 7.8l.3 1.8a9.8 9.8 0 0 0 15 6l.2-.2a9.8 9.8 0 0 0-1.2-16.8l-.4-.1a9.8 9.8 0 0 0-10.4 1.5zM31.8 24c0 4.4-3.5 7.8-7.8 7.8a7.7 7.7 0 0 1-7.8-7.8c0-4.4 3.5-7.8 7.8-7.8 4.4 0 7.8 3.4 7.8 7.8z"></path> <path fill="#1a73e8" d="M16.2 24c0 4.4 3.5 7.8 7.8 7.8 4.4 0 7.8-3.4 7.8-7.8s-3.4-7.9-7.8-7.9a7.8 7.8 0 0 0-7.8 7.9z"></path> </svg> 