<svg xmlns="http://www.w3.org/2000/svg" xml:space="preserve" fill="currentColor" viewBox="0 0 900 156"><path d="M151.4 65c-.1-.4-.1-.8-.2-1-4.4-24.5-20.4-45.1-43-55.4C102.5 5.8 96.5 4 90.3 3c-2.6-.4-5.1-.3-7.7-.7H71.2c-.2.2-.6.1-.8.1-5 0-9.8.8-14.6 2.1-3.2 1-6.5 2.2-9.6 3.5-9.9 4.4-18.7 10.9-25.9 19-6.7 7.4-11.7 16.2-15 25.6-1.5 4.1-2.6 8.3-3 12.7.1 2.1 0 4.4-.3 6.7v10.6c.3.3.1.6.1 1 0 3.2.4 6.5.9 9.7 1 4.8 2.5 9.3 4.4 13.7 7.4 17.3 21.1 31.2 38.3 39 5.6 2.7 11.6 4.5 17.8 5.5.6.1 1 .1 1.5.2 6.3.6 12.6.8 19 .4 2 0 4-.2 6-.4 31-5.4 55.4-29.5 61.1-60.6.5-3.1.7-6.4.7-9.5.4-5.6.3-11.1-.4-16.6zm-24.6 30.8c-7.1 22.1-27.8 36.7-50.8 35.9-11.1-.9-21.8-5.2-30.2-12.6-2.6-2.1-3.8-1.8-5.8.4-2 1.9-4.1 3.8-6.2 5.5-.6-2.6-1-5.2-1.5-7.9l-5.7-33c-.3-1.4.5-1 1.2-.9 13 3.5 26 7 38.9 10.5.9.2 1.1.4.3 1-1.8 1.8-3.8 3.6-5.8 5.2-3.7 2.5-2.4 3.8.7 5.6 18.3 11.2 38.3 4.3 45.1-15.9.4-1.1 1-.8 1.6-.7 5.5 1.4 11 2.9 16.6 4.2 1.7.5 2 1.1 1.6 2.7zm-.7-20.7c-13.1-3.5-26.2-7-39.3-10.6-.9-.2-1-.4-.3-1 1.6-1.6 3.2-3.1 5-4.5 5-3.1 3-4.9-.9-7-18.4-10.2-37-3.3-44.1 16.6-.3.4-.9.7-1.3.6-5.2-1.2-10.4-2.9-15.6-3.8-3.1-.6-3.2-1.7-2.3-4.4 6.6-20.2 26-34.4 50.6-34.3 10.7.9 20.9 5 29 12 3.1 2.6 4.9 2.4 7.3-.4 1.7-1.7 3.6-3.4 5.5-5 .5 2.4 1 4.8 1.4 7.2 2 11.2 3.9 22.5 5.9 33.8.2 1.1-.1 1.1-.9.8zM245.8 99.9c-4.3 2.9-9.4 4.3-15.4 4.3-5.3 0-9.9-1.3-13.9-3.8s-7-6.1-9.2-10.7c-2.2-4.6-3.2-9.9-3.2-16 0-6.3 1.1-11.8 3.2-16.3s5.2-8.1 9.2-10.6c4-2.5 8.6-3.7 13.9-3.7 5.9 0 10.9 1.4 15.1 4.3 4.1 2.8 6.9 6.8 8.5 11.9h16.2c-1-6.3-3.2-11.8-6.8-16.4-3.6-4.6-8.2-8.2-13.7-10.7-5.5-2.6-11.8-3.8-18.7-3.8-8.5 0-16 1.9-22.4 5.6-6.5 3.8-11.5 9-15.1 15.8-3.6 6.8-5.3 14.8-5.3 23.9 0 9.2 1.7 17.2 5.2 23.9 3.5 6.8 8.4 12 14.6 15.7 6.3 3.7 13.7 5.6 22.3 5.6 7 0 13.3-1.3 18.9-3.8 5.6-2.6 10.3-6.2 14-10.8 3.7-4.6 6.1-10 7.3-16.1h-16c-1.6 4.9-4.5 8.8-8.7 11.7zm77.7-39.4c-4.8-2.6-10.2-4-16.4-4-6.1 0-11.5 1.3-16.3 4-4.8 2.6-8.6 6.3-11.3 11-2.7 4.7-4.1 10.1-4.1 16.3 0 6.2 1.4 11.6 4.1 16.3 2.7 4.7 6.5 8.3 11.3 11 4.8 2.6 10.2 4 16.3 4 6.2 0 11.6-1.3 16.4-4 4.8-2.6 8.5-6.3 11.2-11 2.7-4.7 4.1-10.1 4.1-16.3 0-6.2-1.4-11.6-4.1-16.3-2.7-4.7-6.4-8.4-11.2-11zM322 97.2c-1.4 2.7-3.4 4.8-6 6.4-2.6 1.5-5.5 2.3-8.9 2.3-3.4 0-6.3-.8-8.8-2.3-2.5-1.5-4.5-3.6-6-6.4-1.5-2.7-2.2-5.9-2.2-9.5 0-3.7.7-6.9 2.2-9.5 1.5-2.7 3.5-4.8 6-6.3s5.5-2.3 8.8-2.3c3.4 0 6.3.8 8.9 2.3 2.6 1.5 4.6 3.6 6 6.3 1.4 2.7 2.2 5.9 2.2 9.5 0 3.6-.7 6.8-2.2 9.5zm59.2-40.8c-4 0-7.7.8-11.1 2.5-3.4 1.7-6 4-7.9 7l-1.2-7.7h-13.6v59.3H362V85.6c0-4.8 1.3-8.6 3.8-11.5 2.6-2.9 6.1-4.3 10.7-4.3 3.8 0 6.9 1.2 9.1 3.7 2.2 2.4 3.4 6.1 3.4 11.1v33h14.6V81c0-7.6-1.9-13.6-5.7-18-3.7-4.4-9.3-6.6-16.7-6.6zm73.5 1.8-10.8 27.2c-1.3 3.3-2.4 6.4-3.4 9.3-1 2.9-1.7 5.3-2.1 7.1-.4-1.6-1.1-3.9-2-6.8-.9-2.9-2-6.1-3.3-9.7l-10.3-27.2h-15.6l23.5 59.3h14.4l24.7-59.3h-15.1zm54.5 46.6c-2.6 1.5-5.9 2.3-9.9 2.3-5.4 0-9.5-1.6-12.3-4.9-2.2-2.6-3.5-6.2-4-10.8l44.6-.1v-4.4c0-6.2-1.2-11.6-3.5-16.1-2.4-4.5-5.7-8-10-10.5s-9.5-3.8-15.5-3.8c-5.8 0-10.9 1.3-15.4 4s-8 6.4-10.4 11.1c-2.5 4.7-3.7 10.2-3.7 16.3 0 6.1 1.3 11.5 3.8 16.1 2.6 4.7 6.1 8.4 10.6 11 4.5 2.7 9.7 4 15.5 4 7.8 0 14.2-1.8 19.3-5.5 5.1-3.7 8.3-8.8 9.5-15.2h-13.6c-.7 2.8-2.4 5-5 6.5zM490 70.6c2.4-1.4 5.3-2.2 8.7-2.2 4.4 0 7.9 1.2 10.5 3.7 2.6 2.5 3.9 5.8 3.9 9.8h-29.8c.3-1.8.8-3.4 1.4-4.9 1.1-2.8 2.9-5 5.3-6.4zm77.1-13.3c-4.7 0-8.6 1.2-11.5 3.7-2 1.7-3.5 3.7-4.5 6.1l-.9-8.7h-13.8v59.2H551V88.7c0-5.8 1.5-10.1 4.6-12.9 3-2.8 7.2-4.3 12.6-4.3h5.4V58c-1.2-.3-2.3-.5-3.4-.6-1.1-.1-2.1-.1-3.1-.1zm36-17.6h-14.7v18.5H577v12.3h11.4v47h14.7v-47h11.4V58.2h-11.4zm69.8-6.3c-4.3-2.4-9.4-3.6-15.4-3.6h-34.7v87.7h15.4V87.3h19.3c5.9 0 11-1.2 15.4-3.7 4.3-2.4 7.7-5.8 10.1-10.2 2.4-4.4 3.6-9.3 3.6-14.9 0-5.8-1.2-10.8-3.6-15.1-2.4-4.3-5.8-7.6-10.1-10zm-6.5 36.2c-2.8 2.7-6.8 4-12.1 4h-16.1V43.5h16.3c5.1 0 9.1 1.3 11.8 3.8 2.8 2.6 4.1 6.2 4.1 11 .1 4.8-1.3 8.6-4 11.3zm58.7-12.3c-4.7 0-8.6 1.2-11.5 3.7-2 1.7-3.5 3.7-4.5 6.1l-.9-8.7h-13.8v59.2H709V88.7c0-5.8 1.5-10.1 4.6-12.9 3-2.8 7.2-4.3 12.6-4.3h5.4V58c-1.2-.3-2.3-.5-3.4-.6-1-.1-2.1-.1-3.1-.1zm48.1 47.5c-2.6 1.5-5.9 2.3-9.9 2.3-5.4 0-9.5-1.6-12.3-4.9-2.2-2.6-3.5-6.2-4-10.8l44.6-.1v-4.4c0-6.2-1.2-11.6-3.5-16.1-2.4-4.5-5.7-8-10-10.5s-9.5-3.8-15.5-3.8c-5.8 0-10.9 1.3-15.4 4s-8 6.4-10.4 11.1c-2.5 4.7-3.7 10.2-3.7 16.3 0 6.1 1.3 11.5 3.8 16.1 2.6 4.7 6.1 8.4 10.6 11 4.5 2.7 9.7 4 15.5 4 7.8 0 14.2-1.8 19.3-5.5 5.1-3.7 8.3-8.8 9.5-15.2h-13.6c-.7 2.8-2.4 5-5 6.5zM754 70.6c2.4-1.4 5.3-2.2 8.7-2.2 4.4 0 7.9 1.2 10.5 3.7 2.6 2.5 3.9 5.8 3.9 9.8h-29.8c.3-1.8.8-3.4 1.4-4.9 1.1-2.8 2.9-5 5.3-6.4zm75.7 13.1L819 81.2c-5.1-1.2-7.7-3.4-7.7-6.7 0-2.2.8-3.9 2.4-5.2 1.6-1.3 3.8-1.9 6.7-1.9s5.1.7 6.7 2.2c1.6 1.5 2.4 3.5 2.4 6.1h13.9c-.1-3.8-1.1-7.2-2.9-10.1-1.9-2.9-4.5-5.1-7.9-6.7-3.4-1.6-7.2-2.4-11.6-2.4-4.6 0-8.6.7-12.1 2.2-3.5 1.5-6.3 3.6-8.3 6.4-2 2.8-3.1 6.1-3.1 10 0 4.7 1.3 8.4 3.9 11.1 2.6 2.7 6.6 4.6 11.9 5.8l10.7 2.5c2.6.6 4.4 1.4 5.4 2.5s1.4 2.4 1.4 3.8c0 2.2-.9 3.9-2.7 5.2-1.8 1.3-4.5 1.9-8 1.9-3.3 0-5.8-.8-7.7-2.3-1.8-1.5-2.8-3.6-2.9-6.1h-13.9c0 5.8 2.2 10.6 6.5 14.2 4.4 3.6 10.2 5.4 17.6 5.4 4.9 0 9.2-.8 13-2.3 3.8-1.6 6.7-3.8 8.8-6.7 2.1-2.9 3.1-6.4 3.1-10.4 0-4.6-1.3-8.1-3.8-10.6-2.4-2.5-6.1-4.3-11.1-5.4zm63.8 5.4c-2.5-2.5-6.3-4.3-11.2-5.4l-10.7-2.5c-5.1-1.2-7.7-3.4-7.7-6.7 0-2.2.8-3.9 2.4-5.2 1.6-1.3 3.8-1.9 6.7-1.9s5.1.7 6.7 2.2c1.6 1.5 2.4 3.5 2.4 6.1H896c-.1-3.8-1.1-7.2-2.9-10.1-1.9-2.9-4.5-5.1-7.9-6.7-3.4-1.6-7.2-2.4-11.6-2.4-4.6 0-8.6.7-12.1 2.2-3.5 1.5-6.3 3.6-8.3 6.4-2 2.8-3.1 6.1-3.1 10 0 4.7 1.3 8.4 3.9 11.1 2.6 2.7 6.6 4.6 11.9 5.8l10.7 2.5c2.6.6 4.4 1.4 5.4 2.5s1.4 2.4 1.4 3.8c0 2.2-.9 3.9-2.7 5.2-1.8 1.3-4.5 1.9-8 1.9-3.3 0-5.8-.8-7.7-2.3-1.8-1.5-2.8-3.6-2.9-6.1h-13.9c0 5.8 2.2 10.6 6.5 14.2 4.4 3.6 10.2 5.4 17.6 5.4 4.9 0 9.2-.8 13-2.3 3.8-1.6 6.7-3.8 8.8-6.7 2.1-2.9 3.1-6.4 3.1-10.4.1-4.6-1.2-8.2-3.7-10.6z"/></svg>