<?xml version="1.0" encoding="UTF-8"?> <svg xmlns="http://www.w3.org/2000/svg" xml:space="preserve" viewBox="0 0 432 432"> <path fill="none" d="M73.5 2.2h285.1v427.6H73.5V2.2z"></path> <path fill="#1abcfe" d="M216 216a71.3 71.3 0 1 1 142.5 0 71.3 71.3 0 0 1-142.5 0z"></path> <path fill="#0acf83" d="M73.5 358.5a71.3 71.3 0 0 1 71.3-71.3H216v71.3a71.3 71.3 0 1 1-142.5 0z"></path> <path fill="#ff7262" d="M216 2.2v142.5h71.3a71.3 71.3 0 1 0 0-142.5H216z"></path> <path fill="#f24e1e" d="M73.5 73.5a71.3 71.3 0 0 0 71.3 71.3H216V2.2h-71.3a71.3 71.3 0 0 0-71.2 71.3z"></path> <path fill="#a259ff" d="M73.5 216a71.3 71.3 0 0 0 71.3 71.3H216V144.7h-71.3A71.3 71.3 0 0 0 73.5 216z"></path> </svg> 