<?xml version="1.0" encoding="UTF-8"?> <svg xmlns="http://www.w3.org/2000/svg" xml:space="preserve" viewBox="0 0 256 256"> <path fill="#E24329" d="m128 246 47.2-144.9H81l47 145v-.1z"></path> <path fill="#FC6D26" d="M128 246 81 101.2H15l113 145v-.2z"></path> <path fill="#FCA326" d="m15 101.1-14.4 44a9.8 9.8 0 0 0 3.6 11L128 246 15 101.1z"></path> <path fill="#E24329" d="M15 101.1h66L52.6 13.8c-.9-2.6-3.6-4-6.2-3.1a4.8 4.8 0 0 0-3.1 3.1L15 101.1z"></path> <path fill="#FC6D26" d="m128 246 47.2-144.9h66L128 246.1v-.1z"></path> <path fill="#FCA326" d="m241.2 101.1 14.3 44a10 10 0 0 1-3.5 11l-124 90L241.3 101l-.1.1z"></path> <path fill="#E24329" d="M241.2 101.1h-66l28.3-87.3c.9-2.6 3.6-4 6.2-3.1 1.5.5 2.6 1.6 3.1 3.1l28.4 87.3z"></path> </svg> 