<?xml version="1.0" encoding="UTF-8"?> <svg xmlns="http://www.w3.org/2000/svg" xml:space="preserve" viewBox="0 0 512 512"> <radialGradient id="a" cx="56.4" cy="19.2" r="711.3" gradientTransform="matrix(.9986 -.05234 .04449 .8488 -37 443.8)" gradientUnits="userSpaceOnUse"> <stop offset="0" stop-color="#fed576"></stop> <stop offset=".3" stop-color="#f47133"></stop> <stop offset=".6" stop-color="#bc3081"></stop> <stop offset="1" stop-color="#4c63d2"></stop> </radialGradient> <path fill="url(#a)" d="M96.1 23.2a120.6 120.6 0 0 0-43.6 28.4 120.3 120.3 0 0 0-28.4 43.5 179.9 179.9 0 0 0-11.4 59.7c-1.2 26.2-1.5 34.6-1.5 101.4s.3 75.2 1.5 101.4c1.2 26.2 5.4 44.1 11.4 59.7a120.6 120.6 0 0 0 28.4 43.6 120.6 120.6 0 0 0 43.6 28.4 179.9 179.9 0 0 0 59.7 11.4 1733 1733 0 0 0 101.4 1.5c66.8 0 75.2-.3 101.4-1.5 26.2-1.2 44.1-5.4 59.7-11.4a120.6 120.6 0 0 0 43.6-28.4 120.6 120.6 0 0 0 28.4-43.6 179.9 179.9 0 0 0 11.4-59.7c1.2-26.2 1.5-34.6 1.5-101.4s-.3-75.2-1.5-101.4a182.5 182.5 0 0 0-11.4-59.7A121.3 121.3 0 0 0 462 51.6a120.6 120.6 0 0 0-43.6-28.4 179.9 179.9 0 0 0-59.7-11.4c-26.2-1.2-34.6-1.5-101.4-1.5s-75.2.3-101.4 1.5a177.5 177.5 0 0 0-59.8 11.4zM356.6 56c24 1.1 37 5.1 45.7 8.5a76.6 76.6 0 0 1 28.3 18.4 76.6 76.6 0 0 1 18.4 28.3c3.4 8.7 7.4 21.7 8.5 45.7 1.2 25.9 1.4 33.7 1.4 99.4s-.3 73.5-1.4 99.4c-1.1 24-5.1 37-8.5 45.7a76.6 76.6 0 0 1-18.4 28.3 76.6 76.6 0 0 1-28.3 18.4c-8.7 3.4-21.7 7.4-45.7 8.5-25.9 1.2-33.7 1.4-99.4 1.4s-73.5-.3-99.4-1.4c-24-1.1-37-5.1-45.7-8.5a76.6 76.6 0 0 1-28.3-18.4 76.6 76.6 0 0 1-18.4-28.3c-3.4-8.7-7.4-21.7-8.5-45.7-1.2-25.9-1.4-33.7-1.4-99.4s.3-73.5 1.4-99.4c1.1-24 5.1-37 8.5-45.7a76.6 76.6 0 0 1 18.4-28.3 76.6 76.6 0 0 1 28.3-18.4c8.7-3.4 21.7-7.4 45.7-8.5 25.9-1.2 33.7-1.4 99.4-1.4s73.5.2 99.4 1.4z"></path> <radialGradient id="b" cx="154.1" cy="134.6" r="365.3" gradientTransform="matrix(.9986 -.05234 .04449 .8488 -24.4 253.3)" gradientUnits="userSpaceOnUse"> <stop offset="0" stop-color="#fed576"></stop> <stop offset=".3" stop-color="#f47133"></stop> <stop offset=".6" stop-color="#bc3081"></stop> <stop offset="1" stop-color="#4c63d2"></stop> </radialGradient> <path fill="url(#b)" d="M130.9 256.3a126.3 126.3 0 1 0 252.6 0 126.3 126.3 0 0 0-252.6 0zm208.3 0a82 82 0 1 1-164 0 82 82 0 0 1 164 0z"></path> <circle cx="388.6" cy="125" r="29.5" fill="#654c9f"></circle> </svg> 