<?xml version="1.0" encoding="UTF-8"?> <svg xmlns="http://www.w3.org/2000/svg" viewBox="0 0 480 480"><path fill="#fff" d="M252.1 447.6s135.7-259.4 135.3-259.7c.4.3-145.7-.2-146.2-.5.5.3-1.2-161.8-1.2-161.8s-24.7.5-25.2.2c.5.3-130.8 262.4-131.3 262.1.5.3 131.8-.2 131.3-.5.5.3 9.3 156.9 8.8 156.6.5.3 28.5 3.6 28.5 3.6z"></path><path fill="#00be28" d="M240 0C107.6 0 0 107.6 0 240s107.6 240 240 240 240-107.6 240-240S372.4 0 240 0zm-12.4 279.9H108.1L227.6 47.2v232.6zM252 432.4V199.7h119.6L251.9 432.4z"></path></svg> 