<?xml version="1.0" encoding="UTF-8"?> <svg xmlns="http://www.w3.org/2000/svg" viewBox="-1 -.1 949.1 959.8"><path d="M925.8 456.3a242.1 242.1 0 0 1-41.4 261.1 242.8 242.8 0 0 1-81.7 59.3c-15.5 6.8-31.7 12-48.3 15.4a240.3 240.3 0 0 1-88 121.3 239.7 239.7 0 0 1-142.6 46.2 242.5 242.5 0 0 1-142.6-46.3 237.7 237.7 0 0 1-37.4-34.2A242.1 242.1 0 0 1 62.4 716.7a239.5 239.5 0 0 1 .3-149.8 242.7 242.7 0 0 1 130-399.4A241.3 241.3 0 0 1 423.3 0a238.4 238.4 0 0 1 180.2 80.4A244.3 244.3 0 0 1 752.6 96a242.6 242.6 0 0 1 132.1 146.7c5.3 16.1 8.9 32.7 10.6 49.6a240 240 0 0 1-10.9 100.4 241 241 0 0 1 41.4 63.6zM592.6 883.2a179.3 179.3 0 0 0 97.3-97.4c9-21.8 13.7-45.2 13.7-68.8V494l-.2-.7-.3-.6-.5-.5-.6-.4-80.7-46.6v269.4a31.6 31.6 0 0 1-9.2 22.2 32.1 32.1 0 0 1-6.5 5L414.5 852.1l-5.7 3.2a173.7 173.7 0 0 0 53.8 31 185.5 185.5 0 0 0 61.2 10.7c23.6 0 47-4.7 68.8-13.8zM137.5 731.8a181.3 181.3 0 0 0 109.2 83.7 179.7 179.7 0 0 0 136.4-17.9l193.2-111.5.5-.5.3-.6.3-.6v-94L344.2 725.3a35.3 35.3 0 0 1-7.5 3.2 32.3 32.3 0 0 1-23.9-3.2L121.7 614.9l-5.6-3.4a180.6 180.6 0 0 0 8.2 92.3 181 181 0 0 0 13.2 28.2zm-50.2-417a180.9 180.9 0 0 0-17.9 136.5 179.6 179.6 0 0 0 83.7 109.1L346.2 672l.7.2h.7q.4 0 .7-.2l.6-.3 81-46.8-233.2-134.6a38.8 38.8 0 0 1-6.5-5 32.1 32.1 0 0 1-5-6.5 33.7 33.7 0 0 1-3.1-7.6c-.7-2.6-1.1-5.3-1-8.1V236a182.1 182.1 0 0 0-53.8 31.2 183.7 183.7 0 0 0-39.8 47.6zm663.3 154.4a31.9 31.9 0 0 1 11.6 11.5c1.3 2.4 2.4 5 3.1 7.6.6 2.7 1 5.4.9 8.2v227.1a179.2 179.2 0 0 0 117-153.4 180 180 0 0 0-89.2-171L600.9 287.6l-.7-.2h-.7l-.7.2-.6.3-80.6 46.6 233.2 134.7zm80.5-121h-.1v.1zm-.1-.1a179.9 179.9 0 0 0-267-186.2L370.9 273.4l-.5.5-.4.6-.2.7-.1.7v93.2l233.2-134.7a32 32 0 0 1 31.4 0l191.1 110.4 5.6 3.3zM325.7 244.9a32.2 32.2 0 0 1 9.2-22.2c1.9-1.9 4.1-3.6 6.5-4.9l191.1-110.3 5.7-3.2A179.2 179.2 0 0 0 271.4 146a180.2 180.2 0 0 0-28 96.5v223l.2.7.3.6.5.6.6.4 80.7 46.6zm43.8 294.7 103.9 60 103.9-60V419.7l-103.8-60-103.9 60z"></path></svg> 