<svg xmlns="http://www.w3.org/2000/svg" xml:space="preserve" fill="currentColor" viewBox="0 0 632 250"><path d="M195.7 85.2c15.9 0 30.1 11.6 30.1 30.5 0 18.8-14.2 30.5-30.1 30.5-15.8 0-30-11.6-30-30.5-.1-18.9 14.1-30.5 30-30.5zm0 49.9c9.1 0 18.3-6.3 18.3-19.5s-9.2-19.5-18.3-19.5c-9 0-18.2 6.3-18.2 19.5s9.2 19.5 18.2 19.5zm37.8 25.5v-56.3h10.6v5c1.8-3.1 6.4-5.9 12.5-5.9 11.9 0 18.7 9.1 18.7 21.1 0 12.3-7.7 21.4-19.2 21.4-5.6 0-9.7-2.2-11.7-5v19.6h-10.9v.1zm21-47.3c-5.6 0-10.2 4.2-10.2 11.4s4.5 11.5 10.2 11.5c5.6 0 10.1-4.2 10.1-11.5-.1-7.2-4.5-11.4-10.1-11.4zm41.8-9h8.2v9.7h-8.2v17c0 3.6 1.7 4.7 4.8 4.7 1.3 0 2.8-.2 3.4-.3v9.1c-1 .4-3 1-6.2 1-7.9 0-12.9-4.7-12.9-12.5v-18.9H278v-9.7h2.1c4.3 0 6.3-2.8 6.3-6.4v-5.7h9.9v12zm20.5-20.1c3.8 0 6.8 3.1 6.8 6.9 0 3.6-3 6.7-6.8 6.7-3.7 0-6.8-3.1-6.8-6.7 0-3.8 3.1-6.9 6.8-6.9zm-5.5 60.8v-40.6h11V145h-11zm20.4 0v-40.6h10.5v5c2.2-4 7.4-6.1 11.9-6.1 5.5 0 10 2.4 12.1 6.8 3.2-5 7.5-6.8 12.9-6.8 7.5 0 14.7 4.5 14.7 15.4V145H383v-24.1c0-4.4-2.1-7.7-7.2-7.7-4.7 0-7.5 3.6-7.5 8V145h-10.9v-24.1c0-4.4-2.2-7.7-7.2-7.7-4.8 0-7.6 3.5-7.6 8V145h-10.9zm76.5-60.8c3.8 0 6.8 3.1 6.8 6.9 0 3.6-3 6.7-6.8 6.7-3.7 0-6.8-3.1-6.8-6.7 0-3.8 3-6.9 6.8-6.9zm-5.5 60.8v-40.6h11V145h-11zm17.7 0v-9.7l19.2-21.5h-18.7v-9.5h32.8v9.2l-19.8 21.9H454v9.6h-33.6zm76.8-11.7c-2.1 7-8.5 12.9-18.5 12.9-11.1 0-21-8-21-21.7 0-13 9.6-21.4 20-21.4 12.5 0 20.1 8 20.1 21.1 0 1.6-.2 3.2-.2 3.4h-29.1c.2 5.4 4.8 9.2 10.2 9.2 5.1 0 7.9-2.6 9.2-6.2l9.3 2.7zM486.9 120c-.2-4-2.8-8-9.1-8-5.7 0-8.8 4.3-9.1 8h18.2zm81.6-33.6h11.6L564 145h-11.7l-13.4-41.7-13.4 41.7h-11.9l-16.3-58.5h12.1l10.7 40.3 13-40.3h11.8l13 40.4 10.6-40.5zm28.7 36.5v22h-11.4V86.4h21.9c11.6 0 19.2 7.7 19.2 18.2 0 10.6-7.7 18.2-19.2 18.2l-10.5.1zm9.1-9.8c5.7 0 9.2-3.3 9.2-8.3 0-5.2-3.5-8.4-9.2-8.4h-9v16.8l9-.1zM69.7 57.3c-49.5 0-61.9 12.4-61.9 61.9s12.4 61.9 61.9 61.9 61.9-12.4 61.9-61.9-12.4-61.9-61.9-61.9zM109 158.5c-5.6 5.6-17.8 8.2-39.3 8.2s-33.7-2.5-39.3-8.2c-5.6-5.6-8.2-17.8-8.2-39.3 0-21.6 2.5-33.7 8.2-39.3 5.6-5.6 17.8-8.2 39.3-8.2 21.6 0 33.7 2.5 39.3 8.2 5.6 5.6 8.2 17.8 8.2 39.3s-2.6 33.7-8.2 39.3z"/><path d="m11.458 146.563 35.497-35.496 10.182 10.182-35.496 35.497zm45.696-4.953 59.255-59.255 10.182 10.183-59.255 59.255z"/><path d="m36.832 121.218 10.182-10.182 30.617 30.617-10.182 10.183z"/></svg>