<?xml version="1.0" encoding="UTF-8"?> <svg xmlns="http://www.w3.org/2000/svg" xml:space="preserve" id="Layer_1" x="0" y="0" version="1.1" viewBox="0 0 491 491" fill="#61dafb"> <path d="M490.8 245.5c0-32.5-40.7-63.3-103.1-82.4 14.4-63.6 8-114.2-20.2-130.4a43.5 43.5 0 0 0-22.3-5.6V27c-27.5 0-63.5 19.6-99.9 53.6-36.4-33.8-72.4-53.2-99.9-53.2v.1c-8.4 0-16 1.8-22.6 5.6-28.1 16.2-34.4 66.7-19.9 130.1C40.7 182.4.2 213.2.2 245.5c0 32.5 40.7 63.3 103.1 82.4-14.4 63.6-8 114.2 20.2 130.4a44.2 44.2 0 0 0 22.5 5.6c27.5 0 63.5-19.6 99.9-53.6 36.4 33.8 72.4 53.2 99.9 53.2 8.4 0 16-1.8 22.6-5.6 28.1-16.2 34.4-66.7 19.9-130.1 62-19.1 102.5-49.9 102.5-82.3zM345.1 49.4c4.6.1 8.3 1 11.4 2.7 13.6 7.8 19.5 37.5 14.9 75.7-1.1 9.4-2.9 19.3-5.1 29.4-19.6-4.8-41-8.5-63.5-10.9a473.3 473.3 0 0 0-41.6-50c32.5-30.3 63.1-46.9 83.9-46.9zM171.3 320.2c-13.8-2-27.5-4.6-41-7.9 3.7-12.9 8.3-26.2 13.5-39.5a467 467 0 0 0 27.5 47.4zM130 178.9c13.1-3.1 26.9-5.8 41.2-7.9a549.8 549.8 0 0 0-27.4 47.7 439 439 0 0 1-13.8-39.8zm25.5 66.9a521 521 0 0 1 44.8-78.1c30-2.6 60.2-2.7 90.2-.1a557.5 557.5 0 0 1 45 77.8 521.8 521.8 0 0 1-44.8 78.1c-30 2.6-60.2 2.7-90.2.1a546.3 546.3 0 0 1-45-77.8zm191.6 26.5c5.4 13.4 10 26.8 13.8 39.8-13.6 3.3-27.3 6-41.2 8a537 537 0 0 0 27.4-47.8zm-27.5-101.4c14.2 2.1 27.9 4.7 41 7.9a459.4 459.4 0 0 1-13.5 39.5 467 467 0 0 0-27.5-47.4zM273 144c-18.4-.8-36.9-.8-55.3 0 9-11.7 18.3-22.4 27.5-32 9.3 9.7 18.6 20.4 27.8 32zM133.9 52.4c3-1.8 6.9-2.6 11.5-2.6v-.1c20.7 0 51.4 16.5 84 46.6-14 14.7-28 31.4-41.3 49.9a472.4 472.4 0 0 0-63.6 11c-2.3-10-4-19.7-5.2-29-4.7-38.1 1.1-67.8 14.6-75.8zm-25.2 253.9c-9.9-3.1-19.3-6.5-28-10.2-35.4-15.1-58.3-34.9-58.3-50.6s22.9-35.6 58.3-50.6c8.6-3.7 18-7 27.7-10.1 5.7 19.6 13.2 40 22.5 60.9a473 473 0 0 0-22.2 60.6zm37.1 135.5c-4.5-.1-8.3-1-11.3-2.7-13.6-7.8-19.5-37.5-14.9-75.7 1.1-9.4 2.9-19.3 5.1-29.4 19.6 4.8 41 8.5 63.5 10.9a473.3 473.3 0 0 0 41.6 50c-32.6 30.2-63.2 46.9-84 46.9zm99.9-62.8a421.9 421.9 0 0 1-27.8-32c18.4.8 36.9.8 55.3 0-9 11.8-18.3 22.5-27.5 32zm111.4 59.6c-3 1.8-6.9 2.6-11.5 2.6-20.7 0-51.4-16.5-84-46.6 14-14.7 28-31.4 41.3-49.9 21.4-2.2 42.7-5.9 63.6-11 2.2 9.6 4 19.3 5.2 29.1 4.7 38.2-1.1 68-14.6 75.8zm53.1-142.5c-8.6 3.7-18 7-27.7 10.1-5.7-19.6-13.2-40-22.5-60.9a467.5 467.5 0 0 0 22.2-60.6c9.9 3.1 19.3 6.5 28.1 10.2 35.4 15.1 58.3 34.9 58.3 50.6-.1 15.7-23 35.6-58.4 50.6z" class="st0"></path> <circle cx="245.4" cy="245.5" r="45.7" class="st0"></circle> </svg> 