<svg xmlns="http://www.w3.org/2000/svg" xml:space="preserve"
     viewBox="0 0 1134.8 277.8" fill="currentColor">
  <path d="M356.1 129.6 324 119.5c-6.4-2-11.2-4.9-14.3-8.5a19.5 19.5 0 0 1-4.7-12.8c0-4.2 1.1-8 3.4-11.2 2.3-3.3 5.4-5.8 9.5-7.6a40.4 40.4 0 0 1 37.8 4.6c7.1 4.9 12.4 12 15.3 20.1l26.4-11.7a61 61 0 0 0-14.2-22.8 68.2 68.2 0 0 0-22.6-15.2 72.7 72.7 0 0 0-28.8-5.5c-11.4 0-21.5 2.1-30.3 6.4s-15.7 10.3-20.7 17.9-7.5 16.5-7.5 26.5c0 11.5 3.5 21.5 10.4 29.8s17.2 14.6 30.8 18.8l33.5 10.8c6.1 2 10.7 4.7 13.7 8s4.6 7.5 4.6 12.6c0 4.4-1.1 8.1-3.4 11.2a23.3 23.3 0 0 1-9.6 7.4 45.2 45.2 0 0 1-41.5-5.8c-8-5.7-14-13.5-18.3-23.5l-26.7 11.5a69.2 69.2 0 0 0 39.4 42.4c9.6 4.1 20 6.2 30.5 6.1 12.2 0 22.8-2.2 31.8-6.6 9-4.4 16.2-10.4 21.3-18 5.2-7.8 7.9-17 7.7-26.4 0-11.7-3.5-21.5-10.4-29.5a64.9 64.9 0 0 0-31-18.9zM534.4 134.1c-3-7.2-7.2-13.9-12.4-19.7a55.6 55.6 0 0 0-19.3-13.6 65.7 65.7 0 0 0-26.3-4.9c-12 0-22.8 2.9-32.3 8.7a63.2 63.2 0 0 0-22.7 23.5 68.7 68.7 0 0 0-8.4 34.1c0 12.3 2.7 23.6 8.2 33.7a60.8 60.8 0 0 0 23.1 24.1 66.3 66.3 0 0 0 34.5 8.9c8.1.1 16.2-1.3 23.9-4 7.3-2.7 13.7-6.3 19-11s9.2-10.1 11.7-16.2l-24.8-12.2a31.5 31.5 0 0 1-29.5 16.3c-6.5.1-13-1.6-18.6-4.9a31 31 0 0 1-12.2-13.9 36.8 36.8 0 0 1-3.1-11.8h91.7c.6-1.9 1.1-3.9 1.3-6.2s.4-4.6.4-6.9c0-8.6-1.4-16.6-4.2-24zm-88.8 13.5a38 38 0 0 1 2.2-7.5 30.2 30.2 0 0 1 28.5-18.9c6.7 0 12.4 1.6 17.2 4.9a27.4 27.4 0 0 1 12 21.5h-59.9zM557.5 48.8h30.9V226h-30.9zM613.4 48.8h30.9V226h-30.9zM754.9 155.8H805v.7a39 39 0 0 1-6.9 23.1c-4.6 6.5-10.6 11.5-18.1 15s-15.6 5.3-24.3 5.3c-10.9 0-20.6-2.6-29-7.7s-15-12.3-19.8-21.4c-4.8-9.1-7.1-19.8-7.1-32s2.3-22.8 6.9-31.8A52.5 52.5 0 0 1 755 78c20-.5 38.1 11.7 45.1 30.4l28.3-13.6c-3-8.3-7.9-15.9-14.7-22.8-6.9-6.9-15.3-12.5-25.2-16.7S767.4 49 754.9 49a84.3 84.3 0 0 0-80.8 54 95.6 95.6 0 0 0-6.6 35.9 87.8 87.8 0 0 0 118 85.1 76.2 76.2 0 0 0 44.5-41.7c4.7-11.3 7-23.4 6.8-35.6v-17.6h-81.9v26.7zM898 102.9a30.3 30.3 0 0 0-11.6 13.7v-18h-29V226h30.9v-70.9c0-9.7 2.7-17.2 8-22.5s12.3-8 21.1-8h11V97.2h-7.5c-8.9.1-16.6 2-22.9 5.7zM943 98.7h30.9V226H943zM943 51.7h30.9v32.8H943zM1096.6 48.8v62.7a49.3 49.3 0 0 0-39.1-15.7c-12.2 0-23.1 3-32.8 8.9a65.3 65.3 0 0 0-31.6 57.6c0 12.3 2.8 23.6 8.4 33.7a63.4 63.4 0 0 0 81.7 27.4c6-2.8 11-6.6 15-11.4v14h29V48.8h-30.6zm-4.6 133.5c-3 5.8-7.3 10.3-12.6 13.6-5.4 3.3-11.5 4.9-18.4 4.9s-13-1.6-18.5-4.9c-5.4-3.3-9.9-8-12.8-13.6-3-5.8-4.6-12.4-4.6-19.9 0-7.3 1.5-13.9 4.6-19.7 3-5.8 7.3-10.3 12.8-13.6s11.6-4.9 18.5-4.9 13 1.6 18.4 4.9 9.6 7.8 12.6 13.6 4.6 12.3 4.6 19.7c0 7.5-1.5 14.1-4.6 19.9zM156.6 153.3 42 267.9a20.2 20.2 0 1 1-28.6-28.6L128 124.7a20.2 20.2 0 0 1 28.6 0 20.4 20.4 0 0 1 0 28.6zM156.6 38.6 42 153.2a20.2 20.2 0 1 1-28.6-28.6L128 10a20.2 20.2 0 0 1 28.6 0 20.4 20.4 0 0 1 0 28.6z"/>
</svg>