<?xml version="1.0" encoding="UTF-8"?> <svg xmlns="http://www.w3.org/2000/svg" xml:space="preserve" viewBox="0 0 2500 2500"> <path fill="#1ab7ea" d="M2498.5 670.5c-11.2 242.7-181.1 575.1-509.7 997.1-339.8 440.6-627.4 661-862.6 661-145.6 0-268.9-134.4-369.7-403.3l-201.6-739.4c-74.8-269-155.1-403.4-240.9-403.4-18.7 0-84 39.2-196.1 117.6L.3 748.9A32959.7 32959.7 0 0 0 364.4 424c164.3-141.9 287.5-216.6 369.7-224 194.2-18.7 313.7 113.9 358.5 397.7 48.5 306.2 82.2 496.7 100.8 571.3 56 253.9 117.6 380.9 184.8 380.9 52.3 0 130.7-82.2 235.3-246.5s160.6-289.4 168-375.3c14.9-141.9-41.1-212.9-168-212.9-59.7 0-121.4 13.1-184.8 39.2 123.2-399.6 358.5-593.7 705.8-582.5 257.6 7.5 378.9 173.7 364 498.6z"></path> </svg> 