<svg xmlns="http://www.w3.org/2000/svg" xml:space="preserve" fill="currentColor" viewBox="0 0 900 300"><path fill-rule="evenodd" d="m87 84.4-63.1 42.2L84.6 168l61.4-41.7-59-41.9zm-43.6 76.7-19.6 13.2 60.7 41.5L146 174l-19-13.5-32.1 22c-6.1 4.1-14.1 4.1-20.3 0l-31.2-21.4zm41.4 72.2c-3.6 0-7.1-1.1-10.1-3.1L14 188.6c-7.9-5.4-10-16.3-4.5-24.2 1.2-1.8 2.8-3.4 4.7-4.6l13.8-9.3-14-9.6c-7.9-5.5-10-16.3-4.5-24.3 1.2-1.8 2.8-3.4 4.6-4.6l62.6-42.2c6.2-4.1 14.3-4 20.4.3l59.1 42c7.8 5.6 9.7 16.4 4.1 24.3-1.2 1.7-2.7 3.1-4.3 4.3l-13.6 9.3 13.8 9.8c7.9 5.6 9.7 16.4 4.1 24.3-1.2 1.7-2.7 3.1-4.4 4.3l-61 41.8c-2.9 2-6.4 3.1-10.1 3.1z" clip-rule="evenodd"/><path d="M206 113.9h17l12.1 51h.6l13.4-51h14.5L277 165h.6l12.1-51.1h16.9l-21 73.3h-15.1l-14-48h-.6l-13.9 48h-15l-21-73.3zm108.1 3.6c0-4.2 3.7-7.7 8.2-7.7 4.5 0 8.3 3.5 8.3 7.7 0 4.3-3.7 7.7-8.3 7.7-4.4 0-8.2-3.5-8.2-7.7zm.6 14.8H330v55h-15.3v-55zm27.4 0h14.8v9.6h.6c2-6.8 7.1-10.4 13.2-10.4 1.5 0 3.4.2 4.8.5v13.5c-1.4-.5-4.3-.8-6.4-.8-6.7 0-11.7 4.7-11.7 11.4v31.1h-15.3v-54.9zm36.5 27.7c0-17 10.5-28.5 26.7-28.5 14.5 0 25.9 9.2 25.9 27.9v4.2h-37.5c0 8.2 4.8 13.2 12.5 13.2 5.1 0 9-2.2 10.6-6.4l14.1.9c-2.1 10.2-11.3 16.8-24.9 16.8-17.1.3-27.4-10.6-27.4-28.1zm38.1-5.8c0-6.6-4.6-11.3-11.2-11.3-6.8 0-11.5 5-11.9 11.3h23.1zm54-10.5h-10.9v43.5h-15.3v-43.5h-7.8v-11.5h7.8v-4c0-12 7.7-17.8 18-17.8 4.7 0 8.9.9 10.8 1.5l-2.7 11.5c-1.2-.4-3.1-.8-4.9-.8-4.5 0-6 2.2-6 5.9v3.7h10.9v11.5zm9.3-11.4h14.8v9.6h.6c2-6.8 7.1-10.4 13.2-10.4 1.5 0 3.4.2 4.8.5v13.5c-1.4-.5-4.3-.8-6.4-.8-6.7 0-11.7 4.7-11.7 11.4v31.1H480v-54.9zm37.1 39.6c0-12.3 9.8-15.9 20.7-16.9 9.6-.9 13.3-1.4 13.3-4.9v-.2c0-4.5-3-7.1-8.2-7.1-5.5 0-8.7 2.7-9.8 6.3L519 148c2.1-10 10.8-16.3 24-16.3 12.2 0 23.3 5.5 23.3 18.6v37.1h-14.5v-7.6h-.4c-2.7 5.1-8 8.7-16.1 8.7-10.5-.2-18.2-5.7-18.2-16.6zm34.1-4.3v-5.8c-1.8 1.2-7.3 2-10.6 2.5-5.4.8-8.9 2.9-8.9 7.2 0 4.2 3.4 6.4 8.1 6.4 6.6-.1 11.4-4.5 11.4-10.3zm27-35.3h14.5v9.7h.6c2.3-6.5 7.9-10.4 15.3-10.4 7.6 0 13.2 4 14.9 10.4h.6c2.3-6.3 8.5-10.4 16.6-10.4 10.2 0 17.3 6.8 17.3 18.7v37h-15.2v-34c0-6.1-3.7-9.2-8.5-9.2-5.6 0-8.8 3.9-8.8 9.6v33.6h-14.8V153c0-5.4-3.4-8.8-8.4-8.8-5.1 0-9 4-9 10.1v33H578v-55zm89.7 27.7c0-17 10.5-28.5 26.7-28.5 14.5 0 25.9 9.2 25.9 27.9v4.2H683c0 8.2 4.8 13.2 12.5 13.2 5.1 0 9-2.2 10.6-6.4l14.1.9c-2.1 10.2-11.3 16.8-24.9 16.8-17 .3-27.4-10.6-27.4-28.1zm38.2-5.8c0-6.6-4.6-11.3-11.2-11.3-6.8 0-11.5 5-11.9 11.3h23.1zm15-40.3H738l12.1 51h.6l13.4-51h14.5L792 165h.6l12.1-51.1h16.9l-21 73.3h-15.1l-14-48h-.6l-13.9 48h-15.1l-20.8-73.3zm108.9 0h29c16.7 0 26.3 10.3 26.3 24.9 0 14.6-9.8 24.7-26.7 24.7h-13v23.8H830v-73.4zm26.1 37.2c8.9 0 13.2-5 13.2-12.3 0-7.3-4.3-12.2-13.3-12.2h-10.5v24.5h10.6z"/></svg>