<?xml version="1.0" encoding="UTF-8"?> <svg xmlns="http://www.w3.org/2000/svg" xml:space="preserve" viewBox="0 0 257 257"> <path fill="#9b5c8f" d="M24.3 52.3h208.2a23.9 23.9 0 0 1 24 23.8v79.6a23.9 23.9 0 0 1-23.9 23.9H158l10.3 25-45.1-25H24.4A23.9 23.9 0 0 1 .5 155.7V76.2a24 24 0 0 1 23.7-23.9h.1z"></path> <path fill="#fff" d="M15.1 74.1c1.4-2 3.6-3 6.5-3.3 5.3-.4 8.4 2.1 9 7.5 3.3 21.8 6.9 40.2 10.6 55.3L64 90.2c2-4 4.7-6 7.8-6.3 4.6-.3 7.4 2.6 8.5 8.8 2.6 13.8 6 25.6 10 35.6 2.6-26.5 7.2-45.5 13.6-57.3a8 8 0 0 1 7-4.5 9 9 0 0 1 6.5 2c2 1.6 3 3.6 3.2 6 .2 1.7-.2 3.5-1 5-4.1 7.5-7.4 20-10.1 37.5-2.6 17-3.6 30.2-3 39.7.3 2.6-.2 4.9-1.2 6.8a6.6 6.6 0 0 1-5.5 3.8c-2.7.2-5.5-1-8.2-3.9a103 103 0 0 1-23-44.3c-6.8 13.3-11.8 23.3-15 30-6.2 11.7-11.4 17.8-15.7 18-2.8.3-5.2-2.1-7.3-7-5.3-13.7-11-40-17.2-79-.3-2.8.3-5.2 1.7-7zm223.7 16.2a24 24 0 0 0-16.6-12c-2-.5-3.9-.7-5.7-.7-10 0-18 5.2-24.4 15.6-5.4 8.8-8.2 19-8.1 29.3 0 8 1.6 15 5 20.7a24 24 0 0 0 16.6 12c2 .4 3.9.6 5.6.6 10.1 0 18.2-5.2 24.5-15.6 5.4-9 8.1-18.7 8.1-29.4.1-8.1-1.7-14.9-5-20.5zm-13.2 28.8c-1.5 6.9-4 12-8 15.4-3 2.7-5.7 3.9-8.3 3.3-2.5-.5-4.6-2.7-6.2-6.7-1.2-3-1.8-6.2-1.8-9.5a33.8 33.8 0 0 1 6.2-20c3.4-5 7-7.1 10.8-6.4 2.5.5 4.6 2.7 6.2 6.7a28 28 0 0 1 1.8 9.5 38 38 0 0 1-.7 7.7zm-52-28.8a24 24 0 0 0-16.7-12c-2-.5-3.8-.7-5.6-.7-10 0-18.1 5.2-24.5 15.6a55 55 0 0 0-8 29.3c0 8 1.6 15 5 20.7a24 24 0 0 0 16.6 12c2 .4 3.8.6 5.6.6 10 0 18.2-5.2 24.4-15.6a55 55 0 0 0 8.2-29.4c0-8.1-1.7-14.9-5-20.5zm-13.2 28.8c-1.5 6.9-4.1 12-8 15.4-3 2.7-5.8 3.9-8.4 3.3-2.5-.5-4.6-2.7-6.1-6.7-1.2-3-1.9-6.2-1.9-9.5a33.8 33.8 0 0 1 6.2-20c3.5-5 7.1-7.1 10.9-6.4 2.5.5 4.5 2.7 6.1 6.7a30.6 30.6 0 0 1 1.2 17.2z"></path> </svg> 