<?xml version="1.0" encoding="UTF-8"?> <svg xmlns="http://www.w3.org/2000/svg" viewBox="8.4 8.4 51.2 51.2"><path fill="#21759B" d="M34 59.6A25.4 25.4 0 0 1 8.4 34 25.2 25.2 0 0 1 34 8.4c14.7 0 25.6 11.5 25.6 25.6S48.2 59.6 34 59.6zm7.6-4-7.3-19.5-6.8 20a22 22 0 0 0 14-.4zm-17.7-1-11-29.8a23.3 23.3 0 0 0-2 9.2c.2 8.7 5 16.7 13 20.6zm33-20.6c.1-5.7-2.4-10.1-2.6-10.8a23 23 0 0 1-1.2 9l-7.5 21.5C55 48.1 56.8 39.7 57 34zm-23.6-1-3.7-9.9L27 23c-1.1-.7-.5-2 .3-2 4.8.4 7.4.4 12.2 0 1.2 0 1.5 1.8.2 2l-2.6.2 8.3 24.6 4-13.5c.2-5.9-1.4-6.5-3.6-10.8-1.7-3.3.1-6.5 3.5-6.6a23 23 0 0 0-34.5 4.5l7.9-.2c1 .4.5 1.8 0 2l-2.8.1 8.3 25 5-15.2z"></path></svg> 